<?xml version="1.0" encoding="UTF-8" standalone="no"?>
<svg
   xmlns:dc="http://purl.org/dc/elements/1.1/"
   xmlns:cc="http://creativecommons.org/ns#"
   xmlns:rdf="http://www.w3.org/1999/02/22-rdf-syntax-ns#"
   xmlns:svg="http://www.w3.org/2000/svg"
   xmlns="http://www.w3.org/2000/svg"
   xmlns:sodipodi="http://sodipodi.sourceforge.net/DTD/sodipodi-0.dtd"
   xmlns:inkscape="http://www.inkscape.org/namespaces/inkscape"
   viewBox="0 0 24 24"
   id="svg2"
   version="1.1"
   inkscape:version="0.92.0 r"
   sodipodi:docname="close.svg"
   width="25.6"
   height="25.6"
   style="fill:#808080">
  <metadata
     id="metadata10">
    <rdf:RDF>
      <cc:Work
         rdf:about="">
        <dc:format>image/svg+xml</dc:format>
        <dc:type
           rdf:resource="http://purl.org/dc/dcmitype/StillImage" />
      </cc:Work>
    </rdf:RDF>
  </metadata>
  <defs
     id="defs8" />
  <sodipodi:namedview
     pagecolor="#ffffff"
     bordercolor="#666666"
     borderopacity="1"
     objecttolerance="10"
     gridtolerance="10"
     guidetolerance="10"
     inkscape:pageopacity="0"
     inkscape:pageshadow="2"
     inkscape:window-width="1264"
     inkscape:window-height="836"
     id="namedview6"
     showgrid="false"
     inkscape:zoom="32"
     inkscape:cx="7.4645668"
     inkscape:cy="8.6622217"
     inkscape:window-x="0"
     inkscape:window-y="22"
     inkscape:window-maximized="1"
     inkscape:current-layer="svg2" />
  <path
     style="fill:#ffffff;fill-opacity:1;stroke-width:0.99265593"
     d="m 15.408107,8.5918929 c -0.37494,-0.37494 -0.978634,-0.37494 -1.353575,0 L 12,10.646427 9.9454673,8.5918928 c -0.3749402,-0.3749403 -0.9786345,-0.3749403 -1.3535747,0 -0.3749402,0.3749401 -0.3749402,0.9786343 0,1.3535745 l 2.0545334,2.0545337 -2.0545334,2.054532 c -0.3749402,0.374941 -0.3749402,0.978635 0,1.353574 0.3749402,0.374941 0.9786345,0.374941 1.3535747,0 L 12,13.353575 l 2.054533,2.054532 c 0.37494,0.374941 0.978635,0.374941 1.353574,0 0.374941,-0.374939 0.374941,-0.978633 0,-1.353574 l -2.054533,-2.054532 2.054533,-2.0545337 c 0.37494,-0.3749399 0.37494,-0.9786341 0,-1.3535744 z"
     id="rect817"
     inkscape:connector-curvature="0" />
</svg>
