<?xml version="1.0" encoding="UTF-8" standalone="no"?>
<svg
   xmlns:dc="http://purl.org/dc/elements/1.1/"
   xmlns:cc="http://creativecommons.org/ns#"
   xmlns:rdf="http://www.w3.org/1999/02/22-rdf-syntax-ns#"
   xmlns:svg="http://www.w3.org/2000/svg"
   xmlns="http://www.w3.org/2000/svg"
   xmlns:sodipodi="http://sodipodi.sourceforge.net/DTD/sodipodi-0.dtd"
   xmlns:inkscape="http://www.inkscape.org/namespaces/inkscape"
   viewBox="0 0 24 24"
   id="svg2"
   version="1.1"
   inkscape:version="0.92.0 r"
   sodipodi:docname="maximize.svg"
   width="25.6"
   height="25.6"
   style="fill:#808080">
  <metadata
     id="metadata10">
    <rdf:RDF>
      <cc:Work
         rdf:about="">
        <dc:format>image/svg+xml</dc:format>
        <dc:type
           rdf:resource="http://purl.org/dc/dcmitype/StillImage" />
      </cc:Work>
    </rdf:RDF>
  </metadata>
  <defs
     id="defs8" />
  <sodipodi:namedview
     pagecolor="#ffffff"
     bordercolor="#666666"
     borderopacity="1"
     objecttolerance="10"
     gridtolerance="10"
     guidetolerance="10"
     inkscape:pageopacity="0"
     inkscape:pageshadow="2"
     inkscape:window-width="1264"
     inkscape:window-height="836"
     id="namedview6"
     showgrid="false"
     inkscape:zoom="9.8333333"
     inkscape:cx="-0.59449972"
     inkscape:cy="7.9322034"
     inkscape:window-x="0"
     inkscape:window-y="22"
     inkscape:window-maximized="1"
     inkscape:current-layer="svg2" />
  <path
     style="fill:#ffffff;fill-opacity:1;stroke-width:0.91411412"
     d="m 12,7.5615648 c -0.48829,0 -0.881391,0.3931004 -0.881392,0.8813917 l 10e-7,2.6756525 -2.675653,-10e-7 c -0.4882915,0 -0.8813922,0.393101 -0.8813917,0.881392 -10e-8,0.488291 0.3931004,0.881392 0.8813912,0.881392 h 2.6756535 l -10e-7,2.675652 c 10e-7,0.488292 0.393102,0.881392 0.881392,0.881392 0.488291,0 0.881392,-0.3931 0.881392,-0.881392 v -2.675652 l 2.675652,-10e-7 c 0.488292,10e-7 0.881393,-0.3931 0.881391,-0.881391 2e-6,-0.48829 -0.393099,-0.881391 -0.881391,-0.881391 h -2.675652 l -10e-7,-2.6756532 C 12.881391,7.9546652 12.48829,7.5615648 12,7.5615648 Z"
     id="rect817"
     inkscape:connector-curvature="0" />
</svg>
