/* XPM */
static char * close_active_xpm[] = {
"24 24 13 1",
" 	c None",
".	c #555555",
"+	c #444444",
"@	c #606060",
"#	c #D0D0D0",
"$	c #525252",
"%	c #CECECE",
"&	c #636363",
"*	c #CFCFCF",
"=	c #FFFFFF",
"-	c #DEDEDE",
";	c #E1E1E1",
">	c #545454",
"........................",
"++++++++++++++++++++++++",
"++++++++++++++++++++++++",
"++++++++++++++++++++++++",
"++++++++++++++++++++++++",
"++++++++++++++++++++++++",
"++++++++++++++++++++++++",
"++++++++++++++++++++++++",
"++++++++@#.++$%&++++++++",
"++++++++*=-$$-=*++++++++",
"++++++++$-=--=-$++++++++",
"+++++++++$-==;>+++++++++",
"+++++++++$-==;.+++++++++",
"++++++++$-=--=-$++++++++",
"++++++++*=-$$-=*++++++++",
"++++++++&*$++$*&++++++++",
"++++++++++++++++++++++++",
"++++++++++++++++++++++++",
"++++++++++++++++++++++++",
"++++++++++++++++++++++++",
"++++++++++++++++++++++++",
"++++++++++++++++++++++++",
"++++++++++++++++++++++++",
"++++++++++++++++++++++++"};
