/* XPM */
static char * maximize_toggled_active_xpm[] = {
"24 24 4 1",
" 	c None",
".	c #555555",
"+	c #444444",
"@	c #FFFFFF",
"........................",
"++++++++++++++++++++++++",
"++++++++++++++++++++++++",
"++++++++++++++++++++++++",
"++++++++++++++++++++++++",
"++++++++++++++++++++++++",
"++++++++++++++++++++++++",
"++++++++++++++++++++++++",
"++++++++++++++++++++++++",
"+++++++++@@@@@@+++++++++",
"+++++++++@@@@@@+++++++++",
"+++++++++@@++@@+++++++++",
"+++++++++@@++@@+++++++++",
"+++++++++@@@@@@+++++++++",
"+++++++++@@@@@@+++++++++",
"++++++++++++++++++++++++",
"++++++++++++++++++++++++",
"++++++++++++++++++++++++",
"++++++++++++++++++++++++",
"++++++++++++++++++++++++",
"++++++++++++++++++++++++",
"++++++++++++++++++++++++",
"++++++++++++++++++++++++",
"++++++++++++++++++++++++"};
