/* XPM */
static char * top_left_inactive_xpm[] = {
"8 24 3 1",
" 	c None",
".	c #555555",
"+	c #444444",
"........",
"++++++++",
"++++++++",
"++++++++",
"++++++++",
"++++++++",
"++++++++",
"++++++++",
"++++++++",
"++++++++",
"++++++++",
"++++++++",
"++++++++",
"++++++++",
"++++++++",
"++++++++",
"++++++++",
"++++++++",
"++++++++",
"++++++++",
"++++++++",
"++++++++",
"++++++++",
"++++++++"};
